<svg xmlns="http://www.w3.org/2000/svg" viewBox="0 0 1930 1154" width="1930" height="1154">
	<style>
		tspan { white-space:pre }
		.shp0 { fill: #ecf3ff } 
		.shp1 { fill: #2cc185 } 
	</style>
	<g id="Layer">
		<path id="Layer" class="shp0" d="M0 688.18C0 688.18 128.71 572.21 140.2 825.65C151.69 1079.09 297.37 709.04 361 879.77C424.63 1050.5 427.88 1209.94 526.56 1025.98C625.24 842.02 571.18 1179.95 827.55 1152.01C829.92 1150.85 1256.47 1152.79 1259.01 1152.01C1483.78 1174.14 1409.23 838.66 1531.01 987.97C1652.78 1137.28 1590.25 621.48 1722.07 743.64C1853.89 865.81 1848.71 567.24 1923.41 620.17C1921.21 622.69 1929.07 0 1929.07 0L0 0L0 688.18Z" />
		<path id="Color Fill 1" class="shp1" d="M-0.17 566.67C-0.17 566.67 128.72 471.12 139.81 680.5C150.9 889.89 297.17 584.47 360.52 725.63C423.88 866.79 426.88 998.51 525.85 846.73C624.82 694.95 570.23 974.02 826.64 951.42C829.01 950.47 1255.56 952.88 1258.1 952.24C1482.84 970.95 1408.81 693.67 1530.36 817.25C1651.9 940.82 1590.18 514.6 1721.81 615.77C1853.43 716.94 1848.72 470.28 1923.34 514.16C1921.13 516.23 1929.97 1.84 1929.97 1.84L0.91 -1.84L-0.17 566.67Z" />
	</g>
</svg>